<svg xmlns="http://www.w3.org/2000/svg" width="20" height="23.576" viewBox="0 0 20 23.576">
  <path id="bxl-android" d="M22.7,10.491a1.676,1.676,0,0,0-1.678,1.677V18.11a1.678,1.678,0,0,0,3.356,0V12.167A1.676,1.676,0,0,0,22.7,10.491Zm-16.644,0a1.676,1.676,0,0,0-1.678,1.677V18.11a1.678,1.678,0,0,0,3.356,0V12.167a1.675,1.675,0,0,0-1.678-1.677Zm11.661-5,1.007-1.821a.453.453,0,1,0-.792-.439L16.9,5.1a6.82,6.82,0,0,0-5.037,0l-1.035-1.86a.453.453,0,1,0-.792.439L11.038,5.5a5.782,5.782,0,0,0-3.026,5,.27.27,0,0,0,0,.045.081.081,0,0,0,0,.025H20.741v-.071A5.783,5.783,0,0,0,17.716,5.494ZM11.439,8.076a.455.455,0,1,1,.458-.451.455.455,0,0,1-.458.451Zm5.877,0a.454.454,0,1,1,.454-.454.455.455,0,0,1-.454.454Zm-9.3,12.136a1.538,1.538,0,0,0,1.54,1.536h.769V24.9a1.678,1.678,0,0,0,3.356,0v-3.15h1.4V24.9a1.678,1.678,0,0,0,3.356,0v-3.15H19.2a1.538,1.538,0,0,0,1.54-1.536v-9.3H8.012v9.3Z" transform="translate(-4.377 -2.999)"/>
</svg>
