<svg xmlns="http://www.w3.org/2000/svg" width="20" height="19.506" viewBox="0 0 20 19.506">
  <defs>
    <style>
      .cls-1 {
        fill-rule: evenodd;
      }
    </style>
  </defs>
  <path id="bxl-github" class="cls-1" d="M12.052,2A10,10,0,0,0,8.891,21.49c.5.09.681-.218.681-.482,0-.238-.008-.867-.011-1.7-2.782.6-3.37-1.341-3.37-1.341A2.642,2.642,0,0,0,5.081,16.5c-.907-.621.069-.607.069-.607a2.094,2.094,0,0,1,1.531,1.031,2.129,2.129,0,0,0,2.91.831,2.144,2.144,0,0,1,.637-1.337c-2.22-.252-4.554-1.11-4.554-4.943A3.875,3.875,0,0,1,6.7,8.8a3.6,3.6,0,0,1,.1-2.647s.839-.27,2.749,1.024a9.463,9.463,0,0,1,5.005,0C16.464,5.878,17.3,6.149,17.3,6.149A3.581,3.581,0,0,1,17.4,8.8a3.85,3.85,0,0,1,1.027,2.682c0,3.843-2.336,4.687-4.564,4.935a2.4,2.4,0,0,1,.677,1.851c0,1.337-.012,2.416-.012,2.744,0,.268.178.579.689.48A10,10,0,0,0,12.052,2Z" transform="translate(-2.052 -2)"/>
</svg>
