<svg xmlns="http://www.w3.org/2000/svg" width="20" height="23.748" viewBox="0 0 20 23.748">
  <path id="bxl-apple" d="M23.574,20.506A12.889,12.889,0,0,1,22.3,22.8a11.713,11.713,0,0,1-1.644,1.989,3.2,3.2,0,0,1-2.114.93,5.3,5.3,0,0,1-1.952-.466,5.594,5.594,0,0,0-2.1-.464,5.787,5.787,0,0,0-2.162.464,5.767,5.767,0,0,1-1.868.491A3,3,0,0,1,8.3,24.79a12.3,12.3,0,0,1-1.72-2.059,14.218,14.218,0,0,1-1.818-3.612,13.245,13.245,0,0,1-.763-4.307A7.864,7.864,0,0,1,5.026,10.7,6.069,6.069,0,0,1,7.188,8.511a5.81,5.81,0,0,1,2.924-.827,6.85,6.85,0,0,1,2.262.527,7.3,7.3,0,0,0,1.794.527,10.809,10.809,0,0,0,1.99-.622,6.573,6.573,0,0,1,2.7-.48A5.739,5.739,0,0,1,23.358,10a5,5,0,0,0-2.653,4.544,5.01,5.01,0,0,0,1.646,3.777A5.41,5.41,0,0,0,23.994,19.4C23.862,19.787,23.722,20.154,23.574,20.506ZM18.992,2.475a5.072,5.072,0,0,1-1.3,3.322A4.428,4.428,0,0,1,14.02,7.612a3.692,3.692,0,0,1-.026-.45A5.2,5.2,0,0,1,15.372,3.8,5.306,5.306,0,0,1,17.05,2.543,5,5,0,0,1,18.969,2,4.707,4.707,0,0,1,18.992,2.475Z" transform="translate(-3.994 -1.999)"/>
</svg>
