<svg xmlns="http://www.w3.org/2000/svg" width="24" height="28.498" viewBox="0 0 24 28.498">
  <path id="bxl-apple" d="M27.49,24.207a15.467,15.467,0,0,1-1.531,2.754,14.056,14.056,0,0,1-1.973,2.387,3.835,3.835,0,0,1-2.537,1.116,6.357,6.357,0,0,1-2.342-.559,6.713,6.713,0,0,0-2.523-.556,6.945,6.945,0,0,0-2.594.556,6.92,6.92,0,0,1-2.242.589,3.6,3.6,0,0,1-2.592-1.145,14.757,14.757,0,0,1-2.065-2.471A17.061,17.061,0,0,1,4.91,22.543a15.893,15.893,0,0,1-.916-5.168,9.436,9.436,0,0,1,1.238-4.936A7.282,7.282,0,0,1,7.826,9.814a6.972,6.972,0,0,1,3.508-.993,8.22,8.22,0,0,1,2.714.633,8.761,8.761,0,0,0,2.153.633A12.971,12.971,0,0,0,18.59,9.34a7.887,7.887,0,0,1,3.243-.576,6.887,6.887,0,0,1,5.4,2.841,6,6,0,0,0-3.183,5.453,6.012,6.012,0,0,0,1.975,4.533,6.492,6.492,0,0,0,1.972,1.294c-.159.46-.327.9-.5,1.322ZM21.992,2.57a6.086,6.086,0,0,1-1.558,3.987,5.314,5.314,0,0,1-4.41,2.177,4.43,4.43,0,0,1-.031-.54,6.236,6.236,0,0,1,1.654-4.03,6.368,6.368,0,0,1,2.014-1.513A6,6,0,0,1,21.964,2,5.649,5.649,0,0,1,21.992,2.57Z" transform="translate(-3.994 -1.999)"/>
</svg>
