<svg xmlns="http://www.w3.org/2000/svg" width="20" height="18.568" viewBox="0 0 20 18.568">
  <path id="bxs-planet" d="M15.4,15.814c4.67-4.147,8.289-9.6,6.167-11.985a3,3,0,0,0-2.622-1,5.145,5.145,0,0,0-2.6,1.214A9.132,9.132,0,0,0,3.608,15.366c-1.084,1.225-2.091,3.744-.838,5.155a2.79,2.79,0,0,0,2.186.856C7.713,21.377,11.888,18.935,15.4,15.814ZM19.167,4.851a.959.959,0,0,1,.877.329c.235.266.172.963-.257,1.964a9.224,9.224,0,0,0-1.646-1.887,2.662,2.662,0,0,1,1.026-.406ZM4.677,17.378a9.142,9.142,0,0,0,1.6,1.769c-1.044.309-1.745.288-1.98.021-.221-.247,0-1.088.384-1.79ZM21.284,11.4a30.1,30.1,0,0,1-4.865,5.43,29.589,29.589,0,0,1-6.16,4.278,9.247,9.247,0,0,0,1.908.216A9.162,9.162,0,0,0,21.284,11.4Z" transform="translate(-2.19 -2.809)"/>
</svg>
