<svg xmlns="http://www.w3.org/2000/svg" width="20" height="20" viewBox="0 0 20 20">
  <path id="icons8-testflight" d="M19.238,3.99H8.762A4.767,4.767,0,0,0,4,8.752V19.228A4.767,4.767,0,0,0,8.762,23.99H19.238A4.767,4.767,0,0,0,24,19.228V8.752A4.767,4.767,0,0,0,19.238,3.99ZM6.159,13.03a.477.477,0,0,1-.379-.557A8.1,8.1,0,0,1,13.732,5.9l.014,0a.486.486,0,0,1,.065-.012.584.584,0,0,1,.576.488l.427,2.562L14.363,13a.584.584,0,0,1-1.156.031l-.427-2.562.183-1.648a5.247,5.247,0,0,0-4.451,4.74.477.477,0,0,1-.475.438H8a.476.476,0,0,1-.436-.514,6.2,6.2,0,0,1,5.42-5.63.478.478,0,0,1,.087.007l.109-.98a7.143,7.143,0,0,0-6.463,5.774.476.476,0,0,1-.467.387A.523.523,0,0,1,6.159,13.03Zm10.992,6.127A6.193,6.193,0,0,1,8.7,17.606a.482.482,0,0,1-.032-.071l-.922.356c.026.04.05.082.077.122a7.152,7.152,0,0,0,8.587,2.606.476.476,0,0,1,.358.882,8.1,8.1,0,0,1-9.731-2.952q-.168-.246-.318-.506L6.64,17.9a.508.508,0,0,1-.06-.072.551.551,0,0,1-.066-.237.4.4,0,0,1,0-.048.559.559,0,0,1,.015-.141l0-.006a.558.558,0,0,1,.207-.3L8.56,15.649,12.3,13.923a.564.564,0,0,1,.523.987l-1.8,1.721-1.43.552a5.229,5.229,0,0,0,7.04,1.18.476.476,0,0,1,.527.793Zm3.711-1.325a.476.476,0,0,1-.42.25.482.482,0,0,1-.176-.038.521.521,0,0,1-.071-.012l-2.331-.85L14.706,14.9a.557.557,0,0,1,.517-.975l2.287.67,1.225.941a5.224,5.224,0,0,0-2.383-6.078.476.476,0,0,1,.477-.825,6.2,6.2,0,0,1,2.718,7.49.263.263,0,0,1-.014.025l.786.6a7.163,7.163,0,0,0,.556-2.758,7.078,7.078,0,0,0-2.231-5.186.476.476,0,0,1,.655-.691,8.1,8.1,0,0,1,1.564,9.714Z" transform="translate(-4 -3.99)"/>
</svg>
