<svg id="linux" xmlns="http://www.w3.org/2000/svg" width="20" height="20" viewBox="0 0 20 20">
  <path id="路径_10269" data-name="路径 10269" d="M50.933,1961.691a10,10,0,0,0-5.925,18.055,10.31,10.31,0,0,0,1.192-2.182,68.553,68.553,0,0,1-.343-7.417c-.069-2.4.343-4.6,3.09-6.043a5.48,5.48,0,0,1,2.472-.481,7.732,7.732,0,0,1,4.6,1.3,8.193,8.193,0,0,1,2.884,6.386,14.854,14.854,0,0,0,.687,5.082c.019.064.042.124.062.187a10,10,0,0,0-8.72-14.892Z" transform="translate(-40.933 -1961.691)"/>
  <path id="路径_10270" data-name="路径 10270" d="M64.631,1988.7c-.618-.137-1.511-.755-1.923-.824-.343-.068-.549-2.4.756-2.472s1.579,1.511,1.3,2.128c-.343.618,0,.824.687.618.549-.137.206-1.58.343-1.785-.343-1.992-1.168-2.266-2.06-2.4-3.3.274-1.786,3.846-2.129,3.5-.481-.481-1.854,0-1.854-.344,0-1.854-.618-2.953-1.442-2.953-.961,0-1.373,1.3-1.373,2.06-.069.687.412,2.2.756,2.129.206-.069.618-.549.206-.549-.206,0-.549-.481-.549-1.1s.206-1.236,1.03-1.236c.961.069.961,1.854.824,1.991a9.114,9.114,0,0,0-.755.687c-.275.481-.893.618-1.1.824-.412.412-.481.893-.206,1.1,1.1.618.755,1.3,2.266,1.373a6.345,6.345,0,0,0,2.4-.343c.55-.137,2.2-.549,2.61-1.168a.341.341,0,0,1,.481-.206c.206.137.275.549-.343.755a19.565,19.565,0,0,0-2.4.961,9.287,9.287,0,0,1-1.648.55c-1.579.275-2.747-.55-1.648.48a1.887,1.887,0,0,0,1.58.55c1.991-.069,4.189-2.472,4.395-1.374.069.206-.618.549-1.168.755-1.854.893-3.159,2.747-4.326,2.061-1.1-.549-2.129-3.228-2.129-1.992a5.678,5.678,0,0,1-.983,2.516,10,10,0,0,0,10.559-.828c-.619-1.227-1.156-1.406-1.336-2.444C65.181,1990.284,66.691,1989.117,64.631,1988.7Zm-5.7-.48c-.206,0-.206-.549.549-.481C59,1987.812,59.206,1988.224,58.931,1988.224Zm2.678-.138c-.206.069-.275-.411-.687-.274C61.609,1987.537,61.815,1988.018,61.609,1988.086Z" transform="translate(-50.848 -1976.128)"/>
  <path id="路径_10271" data-name="路径 10271" d="M61.59,1990.344c.137-.069.275.069.206.275-.069.274,0,.481.206.481a.067.067,0,0,0,.069-.069c.069-.618-.206-1.03-.343-1.03C61.453,1989.932,61.453,1990.344,61.59,1990.344Z" transform="translate(-54.262 -1980.034)"/>
  <path id="路径_10272" data-name="路径 10272" d="M77.215,1989.43c-.275,0-.206.206-.069.206.206.069.343.412.412.755,0,0,.275-.068.275-.137A.779.779,0,0,0,77.215,1989.43Z" transform="translate(-64.325 -1979.669)"/>
</svg>
